<svg width="30" height="30" viewBox="0 0 30 30" fill="none" xmlns="http://www.w3.org/2000/svg">
<g id="Sign_in_squre_fill">
<path id="Subtract" fill-rule="evenodd" clip-rule="evenodd" d="M20.371 3.46847L13.1814 2.33869C9.96084 1.8326 8.35055 1.57955 7.30027 2.47767C6.25 3.37579 6.25 5.00584 6.25 8.26595V14H14.1694L10.4691 9.37468L12.0309 8.12529L17.0309 14.3753L17.5306 15L17.0309 15.6247L12.0309 21.8747L10.4691 20.6253L14.1694 16H6.25V21.733C6.25 24.9931 6.25 26.6231 7.30027 27.5213C8.35055 28.4194 9.96084 28.1663 13.1814 27.6602L20.371 26.5305C21.9837 26.277 22.7901 26.1503 23.27 25.589C23.75 25.0277 23.75 24.2115 23.75 22.5789V7.41998C23.75 5.78745 23.75 4.97119 23.27 4.4099C22.7901 3.84861 21.9837 3.7219 20.371 3.46847Z" fill="#373737"/>
</g>
</svg>
