<svg width="30" height="30" viewBox="0 0 30 30" fill="none" xmlns="http://www.w3.org/2000/svg">
<g id="Chat_plus_fill">
<path id="Subtract" fill-rule="evenodd" clip-rule="evenodd" d="M18.2953 3.78108C17.3978 3.75 16.3244 3.75 15 3.75C11.5054 3.75 9.75816 3.75 8.37987 4.3209C6.54216 5.08211 5.08211 6.54216 4.3209 8.37987C3.75 9.75816 3.75 11.5054 3.75 15V18.75C3.75 22.2855 3.75 24.0533 4.84835 25.1517C5.9467 26.25 7.71447 26.25 11.25 26.25H15C18.4946 26.25 20.2418 26.25 21.6201 25.6791C23.4578 24.9179 24.9179 23.4578 25.6791 21.6201C26.25 20.2418 26.25 18.4946 26.25 15C26.25 13.6756 26.25 12.6022 26.2189 11.7047C25.6775 12.4873 24.7736 13 23.75 13C22.0931 13 20.75 11.6569 20.75 10V9.25H20C18.3431 9.25 17 7.90685 17 6.25C17 5.22636 17.5127 4.32246 18.2953 3.78108ZM11.25 11.4996C10.6977 11.4996 10.25 11.9473 10.25 12.4996C10.25 13.0519 10.6977 13.4996 11.25 13.4996H18.75C19.3023 13.4996 19.75 13.0519 19.75 12.4996C19.75 11.9473 19.3023 11.4996 18.75 11.4996H11.25ZM11.25 16.4996C10.6977 16.4996 10.25 16.9473 10.25 17.4996C10.25 18.0519 10.6977 18.4996 11.25 18.4996H15C15.5523 18.4996 16 18.0519 16 17.4996C16 16.9473 15.5523 16.4996 15 16.4996H11.25Z" fill="#717171"/>
<path id="Vector" d="M23.75 10L23.75 2.5M20 6.25H27.5" stroke="#717171" stroke-width="2" stroke-linecap="round" stroke-linejoin="round"/>
</g>
</svg>
