<?xml version="1.0" encoding="UTF-8"?><svg version="1.1" id="Layer_1" xmlns="http://www.w3.org/2000/svg" xmlns:xlink="http://www.w3.org/1999/xlink" x="0px" y="0px" viewBox="0 0 1000 1000" enable-background="new 0 0 1000 1000" xml:space="preserve" width="1000px" height="1000px">
<g>
	<g id="Layer_1_1_">
		<path opacity="0.23" enable-background="new    " d="M782.214,496.068c0.027-9.314,7.572-16.858,16.886-16.884h2.253v-41.6h-17.2
			c-15.318,0-27.736,12.418-27.736,27.736l0,0v55.472c0,2.297,1.863,4.16,4.16,4.16c0,0,0.001,0,0.001,0h17.473
			c2.297,0.001,4.16-1.862,4.161-4.159c0,0,0-0.001,0-0.001L782.214,496.068z"/>
		<rect x="801.351" y="445.485" opacity="0.23" enable-background="new    " width="13.313" height="27.458"/>
		<path opacity="0.23" enable-background="new    " d="M820.621,431.548h6.115c13.094,0,23.708,10.614,23.708,23.708l0,0v7.917
			c0,13.094-10.614,23.708-23.708,23.708l0,0h-6.115c-3.289,0-5.956-2.667-5.956-5.956V437.5c0-3.289,2.667-5.956,5.956-5.956
			V431.548z"/>
		<path opacity="0.21" enable-background="new    " d="M559.214,863.174c0.027,9.314,7.572,16.858,16.886,16.884h2.253v41.6h-17.2
			c-15.318,0-27.736-12.418-27.736-27.736c0,0,0,0,0,0v-55.468c0.001-2.298,1.863-4.16,4.161-4.16h17.473
			c2.298,0,4.16,1.862,4.161,4.16L559.214,863.174z"/>
		<rect x="578.351" y="886.299" opacity="0.21" enable-background="new    " width="13.313" height="27.458"/>
		<path opacity="0.21" enable-background="new    " d="M597.621,872.361h6.115c13.094,0,23.708,10.614,23.708,23.708l0,0v7.917
			c0,13.094-10.614,23.708-23.708,23.708l0,0h-6.115c-3.289,0-5.956-2.667-5.956-5.956v-43.42
			C591.665,875.029,594.332,872.362,597.621,872.361L597.621,872.361z"/>
		<g opacity="0.23">
			<path d="M549,841h-6v-78.675c0.036-31.645,25.68-57.289,57.325-57.325c28.345,0.001,51.325-22.977,51.325-51.323
				c0-0.032,0-0.064,0-0.096l-0.067-36.825l6-0.012l0.067,36.825c0.059,31.66-25.559,57.372-57.219,57.431c-0.035,0-0.071,0-0.106,0
				c-28.333,0.032-51.293,22.992-51.325,51.325V841z"/>
		</g>
		<g opacity="0.23">
			<path d="M712.5,696.372c-33.397-0.039-60.461-27.103-60.5-60.5v-18.5c0-1.657,1.343-3,3-3s3,1.343,3,3v18.5
				c0,30.1,24.401,54.5,54.5,54.5c30.1,0,54.5-24.401,54.5-54.5v-111.5c0-1.657,1.343-3,3-3s3,1.343,3,3v111.5
				C772.961,669.269,745.897,696.333,712.5,696.372z"/>
		</g>
		<path fill="#EEF2F4" d="M549,830h-6v-78.675c0.036-31.645,25.68-57.289,57.325-57.325c28.345,0.001,51.325-22.977,51.325-51.323
			c0-0.032,0-0.064,0-0.096l-0.067-59.825l6-0.012l0.067,59.825c0.059,31.66-25.559,57.372-57.219,57.431c-0.035,0-0.071,0-0.106,0
			c-28.333,0.032-51.293,22.992-51.325,51.325V830z"/>
		<g>
			<path fill="#4C005F" d="M549,831.5h-6c-0.828,0-1.5-0.672-1.5-1.5v-78.675c0.037-32.4,26.425-58.788,58.823-58.825
				c13.311,0,25.822-5.182,35.233-14.593c9.41-9.41,14.594-21.922,14.594-35.23l-0.067-59.919c-0.001-0.828,0.669-1.5,1.497-1.502
				l6-0.012c0.001,0,0.002,0,0.003,0c0.397,0,0.777,0.157,1.059,0.438c0.282,0.281,0.441,0.663,0.441,1.061l0.067,59.825
				c0.06,32.436-26.28,58.873-58.716,58.933h-0.109c-27.441,0.031-49.794,22.384-49.825,49.827V830
				C550.5,830.828,549.828,831.5,549,831.5z M544.5,828.5h3v-77.175c0.033-29.096,23.729-52.792,52.823-52.825h0.108
				c14.908-0.027,28.916-5.86,39.441-16.424c10.524-10.563,16.305-24.593,16.277-39.504l-0.065-58.325l-3,0.006l0.065,58.326
				c-0.001,29.224-23.699,52.921-52.823,52.921c-0.002,0,0,0-0.002,0c-30.746,0.035-55.79,25.079-55.825,55.827V828.5z"/>
		</g>
		<path fill="#EEF2F4" d="M712.5,685c-33.397-0.039-60.461-27.103-60.5-60.5V583c0-1.657,1.343-3,3-3s3,1.343,3,3v41.5
			c0,30.1,24.4,54.5,54.5,54.5s54.5-24.4,54.5-54.5V513c0-1.657,1.343-3,3-3s3,1.343,3,3v111.5
			C772.961,657.897,745.897,684.961,712.5,685z"/>
		<g>
			<path fill="#4C005F" d="M712.502,686.5c-0.001,0-0.003,0-0.004,0c-34.146-0.04-61.958-27.853-61.998-61.998V583
				c0-2.481,2.019-4.5,4.5-4.5s4.5,2.019,4.5,4.5v41.5c0,29.225,23.775,53,53,53s53-23.775,53-53V513c0-2.481,2.019-4.5,4.5-4.5
				s4.5,2.019,4.5,4.5v111.5C774.46,658.647,746.647,686.46,712.502,686.5z M655,581.5c-0.827,0-1.5,0.673-1.5,1.5v41.5
				c0.038,32.494,26.506,58.962,59.002,59c32.492-0.038,58.96-26.506,58.998-59.002V513c0-0.827-0.673-1.5-1.5-1.5
				s-1.5,0.673-1.5,1.5v111.5c0,30.879-25.121,56-56,56s-56-25.121-56-56V583C656.5,582.173,655.827,581.5,655,581.5z"/>
		</g>
		<g opacity="0.23">
			<path d="M654.714,548.293c-1.657,0-3-1.343-3-3V249.96c0.115-24.116-19.342-43.76-43.458-43.875
				c-24.116-0.115-43.76,19.342-43.875,43.458c-0.001,0.139-0.001,0.278,0,0.416v104.366c-0.031,27.031-21.936,48.936-48.967,48.967
				h-1.4c-27.043,0.001-48.965-21.921-48.966-48.964c0-0.001,0-0.002,0-0.003V191.96c-0.014-24.117-19.576-43.655-43.693-43.641
				c-24.096,0.014-43.627,19.545-43.641,43.641v208.333c0,1.657-1.343,3-3,3s-3-1.343-3-3V191.96
				c0.014-27.43,22.263-49.655,49.693-49.641c27.41,0.014,49.627,22.231,49.641,49.641v162.366
				c-0.001,23.729,19.236,42.966,42.965,42.967c0,0,0.001,0,0.001,0h1.4c23.719-0.027,42.94-19.248,42.967-42.967V249.96
				c-0.122-27.43,22.015-49.766,49.445-49.888s49.766,22.015,49.888,49.445c0.001,0.148,0.001,0.296,0,0.444v295.333
				C657.714,546.95,656.371,548.293,654.714,548.293z"/>
		</g>
		<path fill="#EEF2F4" d="M655.042,537.621c-1.657,0-3-1.343-3-3V239.288c0.115-24.116-19.342-43.76-43.458-43.875
			c-24.116-0.115-43.76,19.342-43.875,43.458c-0.001,0.139-0.001,0.278,0,0.416v104.366c-0.03,27.031-21.936,48.937-48.967,48.967
			h-1.4c-27.044,0-48.967-21.923-48.967-48.967c0,0,0,0,0,0V181.288c0-24.117-19.55-43.667-43.667-43.667
			c-24.117,0-43.667,19.55-43.667,43.667l0,0v208.333c0,1.657-1.343,3-3,3s-3-1.343-3-3V181.288
			c-0.014-27.43,22.211-49.679,49.641-49.693c27.43-0.014,49.679,22.211,49.693,49.641c0,0.017,0,0.035,0,0.052v162.366
			c-0.002,23.728,19.233,42.965,42.961,42.967c0.002,0,0.004,0,0.006,0h1.4c23.719-0.026,42.941-19.248,42.967-42.967V239.288
			c-0.122-27.43,22.015-49.766,49.445-49.888s49.766,22.015,49.888,49.445c0.001,0.148,0.001,0.296,0,0.444v295.333
			C658.042,536.278,656.699,537.621,655.042,537.621z"/>
		<g>
			<path fill="#4C005F" d="M655.042,539.121c-2.481,0-4.5-2.019-4.5-4.5V239.288c0.054-11.27-4.281-21.88-12.208-29.882
				c-7.926-8.002-18.494-12.438-29.757-12.492c-0.068,0-0.137,0-0.205,0c-23.157,0-42.053,18.783-42.163,41.966v104.775
				c-0.031,27.797-22.67,50.436-50.465,50.467h-1.402c-27.828,0-50.467-22.64-50.467-50.467V181.288
				c0-23.251-18.916-42.167-42.167-42.167s-42.167,18.916-42.167,42.167v208.333c0,2.481-2.019,4.5-4.5,4.5s-4.5-2.019-4.5-4.5
				V181.288c-0.015-28.213,22.926-51.178,51.14-51.193c0.009,0,0.019,0,0.027,0c28.202,0,51.152,22.936,51.167,51.14v162.419
				c-0.001,11.076,4.312,21.488,12.142,29.32c7.831,7.832,18.244,12.146,29.319,12.147h1.406
				c22.839-0.025,41.441-18.628,41.467-41.469V239.288c-0.062-13.66,5.203-26.533,14.824-36.241
				c9.621-9.707,22.446-15.086,36.113-15.147c0.078,0,0.157,0,0.235,0c13.58,0,26.36,5.259,36.013,14.825
				c9.707,9.621,15.087,22.446,15.147,36.113v295.784C659.542,537.103,657.523,539.121,655.042,539.121z M608.372,193.913
				c0.074,0,0.145,0,0.219,0c12.064,0.058,23.385,4.81,31.875,13.381c8.49,8.571,13.134,19.936,13.076,32v295.326
				c0,0.827,0.673,1.5,1.5,1.5s1.5-0.673,1.5-1.5V238.854c-0.058-12.869-5.121-24.942-14.26-33.999
				c-9.086-9.005-21.117-13.956-33.901-13.956c-0.073,0-0.147,0-0.221,0c-12.866,0.057-24.939,5.122-33.996,14.259
				c-9.057,9.138-14.013,21.256-13.955,34.122v104.373c-0.027,24.493-19.975,44.44-44.465,44.467h-1.402
				c-11.883-0.001-23.048-4.627-31.446-13.025c-8.398-8.399-13.022-19.565-13.021-31.442V181.288
				c-0.014-26.601-21.621-48.193-48.167-48.193c-0.009,0-0.016,0-0.025,0c-26.56,0.014-48.156,21.633-48.142,48.192v208.334
				c0,0.827,0.673,1.5,1.5,1.5s1.5-0.673,1.5-1.5V181.288c0-24.905,20.262-45.167,45.167-45.167s45.167,20.262,45.167,45.167
				v162.366c0,26.173,21.293,47.467,47.467,47.467h1.4c26.144-0.029,47.438-21.324,47.467-47.469V238.861
				C563.328,214.034,583.568,193.913,608.372,193.913z"/>
		</g>
		<rect x="369.354" y="386.333" opacity="0.23" enable-background="new    " width="24.396" height="32.333"/>
		<rect x="362.937" y="382.333" fill="#FDE1FF" width="24.396" height="32.333"/>
		<rect x="362.937" y="382.333" fill="#FFFFFF" width="24.396" height="13"/>
		<g>
			<path fill="#4C005F" d="M387.333,396.833h-24.396c-0.829,0-1.5-0.671-1.5-1.5v-13c0-0.829,0.671-1.5,1.5-1.5h24.396
				c0.829,0,1.5,0.671,1.5,1.5v13C388.833,396.162,388.162,396.833,387.333,396.833z M364.437,393.833h21.396v-10h-21.396V393.833z"/>
		</g>
		<g>
			<path fill="#4C005F" d="M387.333,417.666h-24.396c-1.657,0-3-1.343-3-3v-32.333c0-1.657,1.343-3,3-3h24.396c1.657,0,3,1.343,3,3
				v32.333C390.333,416.323,388.99,417.666,387.333,417.666z M365.937,411.666h18.396v-26.333h-18.396V411.666z"/>
		</g>
		<path opacity="0.23" enable-background="new    " d="M237.924,434.935h176.758c11.096,0,20.092,8.995,20.092,20.092v0v285.448
			c0,11.095-8.995,20.09-20.09,20.09h0h-176.76c-11.096,0-20.092-8.995-20.092-20.092V455.026
			C217.833,443.93,226.828,434.935,237.924,434.935z"/>
		<path fill="#EEF2F4" d="M232.255,414.272h176.758c11.094,0.003,20.086,8.997,20.087,20.091v285.449
			c0,11.095-8.995,20.09-20.09,20.09h0H232.255c-11.096,0-20.092-8.995-20.092-20.092V434.363
			C212.164,423.267,221.159,414.272,232.255,414.272z"/>
		<path fill="#EEF2F4" d="M232.255,414.272h176.758c11.094,0.003,20.086,8.997,20.087,20.091v285.449
			c0,11.095-8.995,20.09-20.09,20.09h0H232.255c-11.096,0-20.092-8.995-20.092-20.092V434.363
			C212.164,423.267,221.159,414.272,232.255,414.272z"/>
		<g opacity="0.76">
			<path fill="#FFFFFF" d="M221.833,719.811V434.362c-0.001-11.095,8.993-20.089,20.088-20.09c0.001,0,0.001,0,0.002,0h-9.669
				c-11.095-0.001-20.089,8.993-20.09,20.088c0,0.001,0,0.001,0,0.002v285.449c0.001,11.095,8.996,20.089,20.091,20.089h9.669
				C230.829,739.9,221.834,730.906,221.833,719.811z"/>
		</g>
		<g opacity="0.1">
			<path d="M419.436,719.811V434.362c0-11.095-8.995-20.09-20.09-20.09h9.669c11.095,0,20.09,8.995,20.09,20.09v285.449
				c-0.002,11.095-8.997,20.089-20.092,20.089h-9.669C410.44,739.901,419.435,730.907,419.436,719.811z"/>
		</g>
		<g opacity="0.04">
			<path d="M409.013,726.9H232.255c-11.096,0-20.091-8.995-20.091-20.091l0,0v13c0,11.096,8.995,20.091,20.091,20.091c0,0,0,0,0,0
				h176.758c11.096,0,20.091-8.995,20.092-20.091v-13C429.104,717.905,420.109,726.9,409.013,726.9z"/>
		</g>
		<g opacity="0.38">
			<path fill="#FFFFFF" d="M409.013,427.272H232.255c-11.096,0-20.091,8.995-20.091,20.091l0,0v-13
				c0-11.096,8.995-20.091,20.091-20.091c0,0,0,0,0,0h176.758c11.096,0,20.091,8.995,20.092,20.091v13
				C429.104,436.267,420.109,427.272,409.013,427.272z"/>
		</g>
		<g>
			<path fill="#4C005F" d="M409.01,742.902H232.255c-12.733,0-23.092-10.359-23.092-23.092V434.363
				c0-12.732,10.359-23.091,23.092-23.091h176.758c12.73,0.003,23.086,10.362,23.087,23.091v285.45
				C432.1,732.544,421.742,742.902,409.01,742.902z M232.255,417.272c-9.424,0-17.091,7.667-17.092,17.091v285.448
				c0,9.425,7.667,17.092,17.092,17.092H409.01c9.424,0,17.09-7.666,17.09-17.09v-285.45c0-9.421-7.666-17.088-17.088-17.091
				H232.255z"/>
		</g>
		<path fill="#B296A3" d="M259.386,453.256h122.496c6.825,0,12.357,5.532,12.357,12.357v80.652c0,6.825-5.532,12.357-12.357,12.357
			H259.386c-6.825,0-12.357-5.532-12.357-12.357v-80.652C247.029,458.788,252.561,453.256,259.386,453.256z"/>
		<polygon opacity="0.2" fill="#EEF2F4" enable-background="new    " points="247,501.166 294.999,453 288.999,453 247,495.166 		
			"/>
		<polygon opacity="0.2" fill="#EEF2F4" enable-background="new    " points="247,518.345 312.178,453 301.932,453 247,508.099 		
			"/>
		<g>
			<path fill="#4C005F" d="M381.882,560.122H259.386c-7.641,0-13.857-6.217-13.857-13.857v-80.652
				c0-7.641,6.216-13.857,13.857-13.857h122.496c7.641,0,13.857,6.216,13.857,13.857v80.652
				C395.739,553.905,389.523,560.122,381.882,560.122z M259.386,454.756c-5.987,0-10.857,4.871-10.857,10.857v80.652
				c0,5.986,4.871,10.857,10.857,10.857h122.496c5.987,0,10.857-4.871,10.857-10.857v-80.652c0-5.986-4.871-10.857-10.857-10.857
				H259.386z"/>
		</g>
		<path fill="#EEF2F4" d="M559.214,850.174c0.027,9.314,7.572,16.858,16.886,16.884h2.253v41.6h-17.2
			c-15.318,0-27.736-12.418-27.736-27.736c0,0,0,0,0,0v-55.468c0.001-2.298,1.863-4.16,4.161-4.16h17.473
			c2.298,0,4.16,1.862,4.161,4.16L559.214,850.174z"/>
		<path opacity="0.1" enable-background="new    " d="M576.1,866.876c-9.433-0.026-17.074-7.667-17.1-17.1v-24.953
			c-0.006-2.177-1.77-3.941-3.947-3.947H552v35.63c0.002,6.378,3.372,12.282,8.862,15.528c6.191,3.531,10.049,10.077,10.138,17.204
			v19.638h7v-42H576.1z"/>
		<g>
			<path fill="#4C005F" d="M578.353,911.658h-17.199c-16.948,0-30.736-13.788-30.736-30.736v-55.468
				c0.002-3.948,3.214-7.16,7.161-7.16h17.473c3.947,0,7.159,3.212,7.161,7.159l0.002,24.716
				c0.024,7.637,6.257,13.867,13.895,13.889h2.244c1.657,0,3,1.343,3,3v41.601C581.353,910.315,580.01,911.658,578.353,911.658z
				 M537.578,824.294c-0.64,0-1.161,0.521-1.161,1.161v55.467c0,13.64,11.097,24.736,24.736,24.736h14.199v-35.616
				c-10.593-0.425-19.107-9.182-19.139-19.859c0-0.003,0-0.006,0-0.009l-0.002-24.72c0-0.639-0.521-1.16-1.161-1.16H537.578z"/>
		</g>
		<rect x="578.351" y="873.299" fill="#D6DADC" width="13.313" height="27.458"/>
		<g>
			<path fill="#4C005F" d="M591.664,903.757h-13.313c-1.657,0-3-1.343-3-3v-27.458c0-1.657,1.343-3,3-3h13.313c1.657,0,3,1.343,3,3
				v27.458C594.664,902.414,593.321,903.757,591.664,903.757z M581.351,897.757h7.313v-21.458h-7.313V897.757z"/>
		</g>
		<g>
			<path fill="#4C005F" d="M603.736,917.694h-6.115c-4.938,0-8.956-4.018-8.956-8.956v-43.42c-0.001-2.392,0.931-4.642,2.622-6.333
				c1.691-1.692,3.94-2.624,6.333-2.624h6.116c14.727,0,26.708,11.981,26.708,26.708v7.917
				C630.444,905.713,618.463,917.694,603.736,917.694z M597.621,862.361c-0.79,0-1.532,0.308-2.091,0.866
				c-0.559,0.558-0.865,1.301-0.865,2.09v43.421c0,1.63,1.326,2.956,2.956,2.956h6.115c11.418,0,20.708-9.29,20.708-20.708v-7.917
				c0-11.418-9.29-20.708-20.708-20.708H597.621z"/>
		</g>
		<path fill="#4C005F" d="M597.621,859.361h6.115c13.094,0,23.708,10.614,23.708,23.708l0,0v7.917
			c0,13.094-10.614,23.708-23.708,23.708l0,0h-6.115c-3.289,0-5.956-2.667-5.956-5.956v-43.42
			C591.664,862.029,594.331,859.362,597.621,859.361C597.62,859.361,597.621,859.361,597.621,859.361z"/>
		<path fill="#EEF2F4" d="M559.214,850.174c0.027,9.314,7.572,16.858,16.886,16.884h2.253v41.6h-17.2
			c-15.318,0-27.736-12.418-27.736-27.736c0,0,0,0,0,0v-55.468c0.001-2.298,1.863-4.16,4.161-4.16h17.473
			c2.298,0,4.16,1.862,4.161,4.16L559.214,850.174z"/>
		<path opacity="0.1" enable-background="new    " d="M576.1,866.876c-9.433-0.026-17.074-7.667-17.1-17.1v-24.953
			c-0.006-2.177-1.77-3.941-3.947-3.947H552v35.63c0.002,6.378,3.372,12.282,8.862,15.528c6.191,3.531,10.049,10.077,10.138,17.204
			v19.638h7v-42H576.1z"/>
		<g>
			<path fill="#4C005F" d="M578.353,911.658h-17.199c-16.948,0-30.736-13.788-30.736-30.736v-55.468
				c0.002-3.948,3.214-7.16,7.161-7.16h17.473c3.947,0,7.159,3.212,7.161,7.159l0.002,24.716
				c0.024,7.637,6.257,13.867,13.895,13.889h2.244c1.657,0,3,1.343,3,3v41.601C581.353,910.315,580.01,911.658,578.353,911.658z
				 M537.578,824.294c-0.64,0-1.161,0.521-1.161,1.161v55.467c0,13.64,11.097,24.736,24.736,24.736h14.199v-35.616
				c-10.593-0.425-19.107-9.182-19.139-19.859c0-0.003,0-0.006,0-0.009l-0.002-24.72c0-0.639-0.521-1.16-1.161-1.16H537.578z"/>
		</g>
		<rect x="578.351" y="873.299" fill="#D6DADC" width="13.313" height="27.458"/>
		<g>
			<path fill="#4C005F" d="M591.664,903.757h-13.313c-1.657,0-3-1.343-3-3v-27.458c0-1.657,1.343-3,3-3h13.313c1.657,0,3,1.343,3,3
				v27.458C594.664,902.414,593.321,903.757,591.664,903.757z M581.351,897.757h7.313v-21.458h-7.313V897.757z"/>
		</g>
		<g>
			<path fill="#4C005F" d="M603.736,917.694h-6.115c-4.938,0-8.956-4.018-8.956-8.956v-43.42c-0.001-2.392,0.931-4.642,2.622-6.333
				c1.691-1.692,3.94-2.624,6.333-2.624h6.116c14.727,0,26.708,11.981,26.708,26.708v7.917
				C630.444,905.713,618.463,917.694,603.736,917.694z M597.621,862.361c-0.79,0-1.532,0.308-2.091,0.866
				c-0.559,0.558-0.865,1.301-0.865,2.09v43.421c0,1.63,1.326,2.956,2.956,2.956h6.115c11.418,0,20.708-9.29,20.708-20.708v-7.917
				c0-11.418-9.29-20.708-20.708-20.708H597.621z"/>
		</g>
		<path fill="#4C005F" d="M597.621,859.361h6.115c13.094,0,23.708,10.614,23.708,23.708l0,0v7.917
			c0,13.094-10.614,23.708-23.708,23.708l0,0h-6.115c-3.289,0-5.956-2.667-5.956-5.956v-43.42
			C591.664,862.029,594.331,859.362,597.621,859.361C597.62,859.361,597.621,859.361,597.621,859.361z"/>
		<path fill="#EEF2F4" d="M782.214,484.068c0.027-9.314,7.572-16.858,16.886-16.884h2.253v-41.6h-17.2
			c-15.318,0-27.736,12.418-27.736,27.736l0,0v55.472c0,2.298,1.863,4.16,4.16,4.16c0,0,0.001,0,0.001,0h17.473
			c2.297,0.001,4.16-1.861,4.161-4.159c0,0,0-0.001,0-0.001L782.214,484.068z"/>
		<g opacity="0.1">
			<path d="M776,487.685V511h2.053c2.224-0.042,3.993-1.88,3.951-4.104c-0.001-0.036-0.002-0.072-0.003-0.108v-24.72
				c-0.017-3.197,0.886-6.332,2.6-9.031C779.319,476.029,776.039,481.615,776,487.685z"/>
			<path d="M784.155,426c-8.51-0.12-16.593,3.718-21.878,10.39c4.646-3.407,10.233-5.29,15.993-5.39l0,0
				c9.24,0,16.73,7.49,16.73,16.73v19.861c1.355-0.273,2.723-0.47,4.1-0.591h1.9v-41H784.155z"/>
		</g>
		<g>
			<path fill="#4C005F" d="M778.051,515.952h-17.473c-3.948,0-7.161-3.212-7.161-7.16V453.32c0-16.948,13.788-30.736,30.736-30.736
				h17.199c1.657,0,3,1.343,3,3v41.6c0,1.657-1.343,3-3,3H799.1c-7.629,0.021-13.861,6.251-13.886,13.888l-0.002,24.72
				C785.21,512.74,781.998,515.952,778.051,515.952z M784.153,428.584c-13.64,0-24.736,11.097-24.736,24.736v55.472
				c0,0.64,0.521,1.16,1.16,1.16h17.474c0.64,0,1.161-0.521,1.161-1.16l0.002-24.724c0-0.003,0-0.006,0-0.009
				c0.031-10.681,8.551-19.439,19.139-19.859v-35.616H784.153z"/>
		</g>
		<rect x="801.351" y="433.485" fill="#D6DADC" width="13.313" height="27.458"/>
		<g>
			<path fill="#4C005F" d="M814.664,463.943h-13.313c-1.657,0-3-1.343-3-3v-27.458c0-1.657,1.343-3,3-3h13.313c1.657,0,3,1.343,3,3
				v27.458C817.664,462.6,816.321,463.943,814.664,463.943z M804.351,457.943h7.313v-21.458h-7.313V457.943z"/>
		</g>
		<g>
			<path fill="#4C005F" d="M826.736,477.881h-6.115c-4.938,0-8.956-4.018-8.956-8.956V425.5c0.003-4.937,4.021-8.952,8.956-8.952
				h6.115c14.727,0,26.708,11.981,26.708,26.708v7.917C853.444,465.9,841.463,477.881,826.736,477.881z M820.621,422.548
				c-1.629,0-2.955,1.325-2.956,2.954v43.423c0,1.63,1.326,2.956,2.956,2.956h6.115c11.418,0,20.708-9.29,20.708-20.708v-7.917
				c0-11.418-9.29-20.708-20.708-20.708H820.621z"/>
		</g>
		<path fill="#4C005F" d="M820.621,419.548h6.115c13.094,0,23.708,10.614,23.708,23.708l0,0v7.917
			c0,13.094-10.614,23.708-23.708,23.708l0,0h-6.115c-3.289,0-5.956-2.667-5.956-5.956V425.5
			C814.667,422.212,817.333,419.548,820.621,419.548z"/>
		<circle fill="#D7F0F4" cx="320.839" cy="641.75" r="55"/>
		<path opacity="0.63" fill="#EEF2F4" enable-background="new    " d="M320.839,596.75c28.435,0.004,52.179,21.683,54.764,50
			c0.148-1.648,0.236-3.313,0.236-5c0-30.376-24.624-55-55-55s-55,24.624-55,55c0,1.687,0.088,3.352,0.237,5
			C268.661,618.433,292.404,596.755,320.839,596.75z"/>
		<circle fill="#EEF2F4" cx="320.839" cy="641.75" r="17"/>
		<g>
			<path fill="#4C005F" d="M320.839,698.25c-31.154,0-56.5-25.346-56.5-56.5s25.346-56.5,56.5-56.5s56.5,25.346,56.5,56.5
				S351.993,698.25,320.839,698.25z M320.839,588.25c-29.5,0-53.5,24-53.5,53.5s24,53.5,53.5,53.5s53.5-24,53.5-53.5
				S350.339,588.25,320.839,588.25z"/>
		</g>
		<path fill="#DBDCDD" d="M320.839,624.75c-9.38-0.007-16.99,7.591-16.997,16.971c-0.004,4.694,1.936,9.181,5.358,12.394
			c0-0.122-0.019-0.242-0.019-0.365c0.006-6.44,5.231-11.656,11.672-11.65c6.432,0.006,11.645,5.218,11.65,11.65
			c0,0.123-0.015,0.243-0.018,0.365c6.837-6.422,7.174-17.171,0.751-24.009c-3.214-3.421-7.7-5.36-12.394-5.356H320.839z"/>
		<g>
			<path fill="#4C005F" d="M320.839,660.25c-10.201,0-18.5-8.299-18.5-18.5s8.299-18.5,18.5-18.5s18.5,8.299,18.5,18.5
				S331.04,660.25,320.839,660.25z M320.839,626.25c-8.547,0-15.5,6.953-15.5,15.5s6.953,15.5,15.5,15.5s15.5-6.953,15.5-15.5
				S329.386,626.25,320.839,626.25z"/>
		</g>
		<path fill="#4C005F" d="M312.676,610.351v-4.018l-1.531,4.018h-0.692l-1.54-4.018v4.018h-1.567v-6.077h2.178l1.275,3.353
			l1.266-3.353h2.177v6.077H312.676z"/>
		<path fill="#4C005F" d="M315.332,610.351v-6.077h4.455v1.367H316.9v0.947h2.824v1.367H316.9v1.029h2.888v1.367H315.332z"/>
		<path fill="#4C005F" d="M324.831,610.351l-2.569-3.517v3.517H320.7v-6.077h1.612l2.46,3.344v-3.344h1.576v6.077H324.831z"/>
		<path fill="#4C005F" d="M327.433,607.891v-3.617h1.6v3.562c0.028,0.707,0.624,1.257,1.331,1.229
			c0.668-0.026,1.203-0.562,1.229-1.229v-3.562h1.585v3.608c0,1.513-0.912,2.578-2.861,2.578S327.433,609.385,327.433,607.891z"/>
		<polygon fill="#4C005F" points="353,637.844 359.062,641.344 353,644.844 		"/>
		<polygon fill="#4C005F" points="347,637.844 353.062,641.344 347,644.844 		"/>
		<rect x="359.244" y="638.334" fill="#4C005F" width="1.25" height="6.713"/>
		<polygon fill="#4C005F" points="316,673.844 322.062,677.344 316,680.844 		"/>
		<rect x="322.009" y="674.161" fill="#4C005F" width="1.25" height="6.713"/>
		<rect x="324.25" y="674.161" fill="#4C005F" width="1.25" height="6.713"/>
		<polygon fill="#4C005F" points="288,637.844 281.938,641.344 288,644.844 		"/>
		<polygon fill="#4C005F" points="294,637.844 287.938,641.344 294,644.844 		"/>
		<rect x="281.001" y="638.334" fill="#4C005F" width="1.25" height="6.713"/>
		<rect x="647.5" y="532" fill="#EEF2F4" width="14.5" height="50.5"/>
		<g>
			<path fill="#4C005F" d="M662,584h-14.5c-0.828,0-1.5-0.672-1.5-1.5V532c0-0.828,0.672-1.5,1.5-1.5H662c0.828,0,1.5,0.672,1.5,1.5
				v50.5C663.5,583.328,662.828,584,662,584z M649,581h11.5v-47.5H649V581z"/>
		</g>
	</g>
</g>
</svg>