<svg width="30" height="30" viewBox="0 0 30 30" fill="none" xmlns="http://www.w3.org/2000/svg">
<path fill-rule="evenodd" clip-rule="evenodd" d="M6.59308 12.6577C6.25 13.4036 6.25 14.2522 6.25 15.9494V21.2499C6.25 23.6069 6.25 24.7855 6.98223 25.5177C7.67456 26.21 8.76584 26.2477 10.875 26.2498V20C10.875 18.7574 11.8824 17.75 13.125 17.75H16.875C18.1176 17.75 19.125 18.7574 19.125 20V26.2498C21.2342 26.2477 22.3254 26.21 23.0178 25.5177C23.75 24.7855 23.75 23.6069 23.75 21.2499V15.9494C23.75 14.2522 23.75 13.4036 23.4069 12.6577C23.0638 11.9118 22.4195 11.3595 21.1309 10.255L19.8809 9.18358C17.5518 7.18717 16.3872 6.18896 15 6.18896C13.6128 6.18896 12.4482 7.18717 10.1191 9.18358L8.86906 10.255C7.58046 11.3595 6.93615 11.9118 6.59308 12.6577ZM17.125 26.2499V20C17.125 19.8619 17.0131 19.75 16.875 19.75H13.125C12.9869 19.75 12.875 19.8619 12.875 20V26.2499H17.125Z" fill="#373737"/>
</svg>
