<svg width="32" height="32" viewBox="0 0 32 32" fill="none" xmlns="http://www.w3.org/2000/svg">
<g id="Layers_fill">
<path id="Vector 99" d="M15.1056 4.44721L7.12217 8.43891C6.34162 8.82918 5.95135 9.02432 5.95135 9.33333C5.95135 9.64235 6.34162 9.83749 7.12217 10.2278L15.1056 14.2195C15.5445 14.4389 15.7639 14.5486 16 14.5486C16.236 14.5486 16.4555 14.4389 16.8944 14.2195L16.8944 14.2195L24.8778 10.2278C25.6583 9.83749 26.0486 9.64235 26.0486 9.33333C26.0486 9.02432 25.6583 8.82918 24.8778 8.43891L16.8944 4.44721C16.4555 4.22776 16.236 4.11803 16 4.11803C15.7639 4.11803 15.5445 4.22776 15.1056 4.44721Z" fill="#717171"/>
<path id="Subtract" fill-rule="evenodd" clip-rule="evenodd" d="M9.33321 14.0004C9.49167 14.0799 9.65463 14.1613 9.82207 14.2451L14.2111 16.4396C15.0889 16.8785 15.5278 17.0979 16 17.0979C16.4721 17.0979 16.911 16.8785 17.7888 16.4396L17.7888 16.4396L22.1779 14.245C22.3453 14.1613 22.5083 14.0798 22.6668 14.0004L24.8778 15.106C25.6583 15.4962 26.0486 15.6914 26.0486 16.0004C26.0486 16.3094 25.6583 16.5045 24.8778 16.8948L16.8944 20.8865L16.8944 20.8865C16.4555 21.106 16.2361 21.2157 16 21.2157C15.7639 21.2157 15.5445 21.106 15.1056 20.8865L7.12218 16.8948C6.34163 16.5045 5.95135 16.3094 5.95135 16.0004C5.95135 15.6914 6.34163 15.4962 7.12217 15.106L7.12218 15.106L9.33321 14.0004Z" fill="#717171"/>
<path id="Subtract_2" fill-rule="evenodd" clip-rule="evenodd" d="M9.33256 20.6671C9.49124 20.7466 9.65442 20.8282 9.8221 20.9121L14.2112 23.1066C15.089 23.5455 15.5279 23.765 16 23.765C16.4721 23.765 16.911 23.5455 17.7889 23.1066L17.7889 23.1066L22.1779 20.9121C22.3456 20.8282 22.5088 20.7467 22.6674 20.6671L24.8778 21.7723C25.6583 22.1626 26.0486 22.3577 26.0486 22.6667C26.0486 22.9757 25.6583 23.1709 24.8778 23.5612L16.8944 27.5529L16.8944 27.5529C16.4555 27.7723 16.2361 27.882 16 27.882C15.7639 27.882 15.5445 27.7723 15.1056 27.5529L7.12218 23.5612C6.34163 23.1709 5.95135 22.9757 5.95135 22.6667C5.95135 22.3577 6.34163 22.1626 7.12217 21.7723L7.12218 21.7723L9.33256 20.6671Z" fill="#717171"/>
</g>
</svg>
